<svg xmlns="http://www.w3.org/2000/svg" width="100%" height="100%" xmlns:xlink="http://www.w3.org/1999/xlink" joint-selector="svg" id="v-560" viewBox="0 0 439.9999694824219 739.9999389648438"><defs joint-selector="defs"><marker id="v-2-857093843" orient="auto" overflow="visible" markerUnits="userSpaceOnUse"><path id="v-124" stroke="#666" fill="#666" transform="rotate(180)" d="M 4 -4 0 0 4 4 z"/></marker></defs><g joint-selector="layers" class="joint-layers"><g joint-selector="back" class="joint-back-layer"/><g joint-selector="cells" class="joint-cells-layer joint-viewport"><g model-id="f73dc279-a37d-40fa-a789-7e66ebe2c643" data-type="ast.Node" id="j_153" class="joint-cell joint-type-ast joint-type-ast-node joint-element joint-theme-default" transform="translate(0,0)"><rect id="v-470" rx="5" ry="5" stroke="none" fill="black" width="120" height="30"/><text id="v-471" font-size="10" xml:space="preserve" y="0.8em" fill="white" font-family="'Helvetica Neue Light','Helvetica Neue','Source Sans Pro',sans-serif" letter-spacing="1px" transform="matrix(1,0,0,1,39,10.5)"><tspan dy="0" class="v-line">Program</tspan></text><path id="v-472" stroke="#666" d="M 0 0 0 10 M -5 10 5 10" visibility="hidden" pointer-events="none" transform="matrix(1,0,0,1,60,30)"/></g><g model-id="dd472c5a-e783-4303-b236-7ab12eaea3c5" data-type="ast.Node" id="j_154" class="joint-cell joint-type-ast joint-type-ast-node joint-element joint-theme-default" transform="translate(80,50)"><rect id="v-475" rx="5" ry="5" stroke="none" fill="#232323" width="120" height="30"/><text id="v-476" font-size="10" xml:space="preserve" y="0.8em" fill="white" font-family="'Helvetica Neue Light','Helvetica Neue','Source Sans Pro',sans-serif" letter-spacing="1px" transform="matrix(1,0,0,1,10,10.5)"><tspan dy="0" class="v-line">VariableDeclaration</tspan></text><path id="v-477" stroke="#666" d="M 0 0 0 10 M -5 10 5 10" visibility="hidden" pointer-events="none" transform="matrix(1,0,0,1,60,30)"/></g><g model-id="ec97a546-23f3-4332-acd5-31b717ff98f4" data-type="ast.Node" id="j_156" class="joint-cell joint-type-ast joint-type-ast-node joint-element joint-theme-default" transform="translate(160,100)"><rect id="v-480" rx="5" ry="5" stroke="none" fill="#414141" width="120" height="30"/><text id="v-481" font-size="10" xml:space="preserve" y="0.8em" fill="white" font-family="'Helvetica Neue Light','Helvetica Neue','Source Sans Pro',sans-serif" letter-spacing="1px" transform="matrix(1,0,0,1,12.7,10.5)"><tspan dy="0" class="v-line">VariableDeclarator</tspan></text><path id="v-482" stroke="#666" d="M 0 0 0 10 M -5 10 5 10" visibility="hidden" pointer-events="none" transform="matrix(1,0,0,1,60,30)"/></g><g model-id="10851f19-62cd-4d3e-b02e-1e3bd5c18f52" data-type="ast.Node" id="j_158" class="joint-cell joint-type-ast joint-type-ast-node joint-element joint-theme-default" transform="translate(240,150)"><rect id="v-485" rx="5" ry="5" stroke="none" fill="#ff5246" width="120" height="30"/><text id="v-486" font-size="10" xml:space="preserve" y="0.8em" fill="white" font-family="'Helvetica Neue Light','Helvetica Neue','Source Sans Pro',sans-serif" letter-spacing="1px" transform="matrix(1,0,0,1,57.5,10.5)"><tspan dy="0" class="v-line">a</tspan></text><path id="v-487" stroke="#666" d="M 0 0 0 10 M -5 10 5 10" visibility="hidden" pointer-events="none" transform="matrix(1,0,0,1,60,30)"/></g><g model-id="d7147b4b-e31f-4bab-b809-f1bdedefd343" data-type="ast.Node" id="j_160" class="joint-cell joint-type-ast joint-type-ast-node joint-element joint-theme-default" transform="translate(240,200)"><rect id="v-490" rx="5" ry="5" stroke="none" fill="#77c63d" width="120" height="30"/><text id="v-491" font-size="10" xml:space="preserve" y="0.8em" fill="white" font-family="'Helvetica Neue Light','Helvetica Neue','Source Sans Pro',sans-serif" letter-spacing="1px" transform="matrix(1,0,0,1,57.5,10.5)"><tspan dy="0" class="v-line">1</tspan></text><path id="v-492" stroke="#666" d="M 0 0 0 10 M -5 10 5 10" visibility="hidden" pointer-events="none" transform="matrix(1,0,0,1,60,30)"/></g><g model-id="b0493402-a57b-491c-a232-d3d4e2fe8b5a" data-type="ast.Node" id="j_162" class="joint-cell joint-type-ast joint-type-ast-node joint-element joint-theme-default" transform="translate(80,250)"><rect id="v-495" rx="5" ry="5" stroke="none" fill="#232323" width="120" height="30"/><text id="v-496" font-size="10" xml:space="preserve" y="0.8em" fill="white" font-family="'Helvetica Neue Light','Helvetica Neue','Source Sans Pro',sans-serif" letter-spacing="1px" transform="matrix(1,0,0,1,10,10.5)"><tspan dy="0" class="v-line">VariableDeclaration</tspan></text><path id="v-497" stroke="#666" d="M 0 0 0 10 M -5 10 5 10" visibility="hidden" pointer-events="none" transform="matrix(1,0,0,1,60,30)"/></g><g model-id="5399ddfc-23d7-4e8c-8ec2-f33dd90d8dd8" data-type="ast.Node" id="j_164" class="joint-cell joint-type-ast joint-type-ast-node joint-element joint-theme-default" transform="translate(160,300)"><rect id="v-500" rx="5" ry="5" stroke="none" fill="#414141" width="120" height="30"/><text id="v-501" font-size="10" xml:space="preserve" y="0.8em" fill="white" font-family="'Helvetica Neue Light','Helvetica Neue','Source Sans Pro',sans-serif" letter-spacing="1px" transform="matrix(1,0,0,1,12.7,10.5)"><tspan dy="0" class="v-line">VariableDeclarator</tspan></text><path id="v-502" stroke="#666" d="M 0 0 0 10 M -5 10 5 10" visibility="hidden" pointer-events="none" transform="matrix(1,0,0,1,60,30)"/></g><g model-id="9a95f582-f1e0-48ed-9340-6f3d94412e05" data-type="ast.Node" id="j_166" class="joint-cell joint-type-ast joint-type-ast-node joint-element joint-theme-default" transform="translate(240,350)"><rect id="v-505" rx="5" ry="5" stroke="none" fill="#ff5246" width="120" height="30"/><text id="v-506" font-size="10" xml:space="preserve" y="0.8em" fill="white" font-family="'Helvetica Neue Light','Helvetica Neue','Source Sans Pro',sans-serif" letter-spacing="1px" transform="matrix(1,0,0,1,57.2,10.5)"><tspan dy="0" class="v-line">b</tspan></text><path id="v-507" stroke="#666" d="M 0 0 0 10 M -5 10 5 10" visibility="hidden" pointer-events="none" transform="matrix(1,0,0,1,60,30)"/></g><g model-id="2ea37f1c-b0da-479a-928a-25b5c8b295b0" data-type="ast.Node" id="j_168" class="joint-cell joint-type-ast joint-type-ast-node joint-element joint-theme-default" transform="translate(240,400)"><rect id="v-510" rx="5" ry="5" stroke="none" fill="#77c63d" width="120" height="30"/><text id="v-511" font-size="10" xml:space="preserve" y="0.8em" fill="white" font-family="'Helvetica Neue Light','Helvetica Neue','Source Sans Pro',sans-serif" letter-spacing="1px" transform="matrix(1,0,0,1,57.5,10.5)"><tspan dy="0" class="v-line">2</tspan></text><path id="v-512" stroke="#666" d="M 0 0 0 10 M -5 10 5 10" visibility="hidden" pointer-events="none" transform="matrix(1,0,0,1,60,30)"/></g><g model-id="af1a91e0-0452-422d-8d05-5d504008adc9" data-type="ast.Node" id="j_170" class="joint-cell joint-type-ast joint-type-ast-node joint-element joint-theme-default" transform="translate(80,450)"><rect id="v-515" rx="5" ry="5" stroke="none" fill="#232323" width="120" height="30"/><text id="v-516" font-size="10" xml:space="preserve" y="0.8em" fill="white" font-family="'Helvetica Neue Light','Helvetica Neue','Source Sans Pro',sans-serif" letter-spacing="1px" transform="matrix(1,0,0,1,10,10.5)"><tspan dy="0" class="v-line">VariableDeclaration</tspan></text><path id="v-517" stroke="#666" d="M 0 0 0 10 M -5 10 5 10" visibility="hidden" pointer-events="none" transform="matrix(1,0,0,1,60,30)"/></g><g model-id="1c3ca807-c78a-4a41-870b-bf75b07a7eda" data-type="ast.Node" id="j_172" class="joint-cell joint-type-ast joint-type-ast-node joint-element joint-theme-default" transform="translate(160,500)"><rect id="v-520" rx="5" ry="5" stroke="none" fill="#414141" width="120" height="30"/><text id="v-521" font-size="10" xml:space="preserve" y="0.8em" fill="white" font-family="'Helvetica Neue Light','Helvetica Neue','Source Sans Pro',sans-serif" letter-spacing="1px" transform="matrix(1,0,0,1,12.7,10.5)"><tspan dy="0" class="v-line">VariableDeclarator</tspan></text><path id="v-522" stroke="#666" d="M 0 0 0 10 M -5 10 5 10" visibility="hidden" pointer-events="none" transform="matrix(1,0,0,1,60,30)"/></g><g model-id="74aeedf5-ad2f-4d56-8fb1-d4ddda5178da" data-type="ast.Node" id="j_174" class="joint-cell joint-type-ast joint-type-ast-node joint-element joint-theme-default" transform="translate(240,550)"><rect id="v-525" rx="5" ry="5" stroke="none" fill="#ff5246" width="120" height="30"/><text id="v-526" font-size="10" xml:space="preserve" y="0.8em" fill="white" font-family="'Helvetica Neue Light','Helvetica Neue','Source Sans Pro',sans-serif" letter-spacing="1px" transform="matrix(1,0,0,1,57.7,10.5)"><tspan dy="0" class="v-line">c</tspan></text><path id="v-527" stroke="#666" d="M 0 0 0 10 M -5 10 5 10" visibility="hidden" pointer-events="none" transform="matrix(1,0,0,1,60,30)"/></g><g model-id="5b5a25ee-9318-47f3-b886-f6f97b7a14dc" data-type="ast.Node" id="j_176" class="joint-cell joint-type-ast joint-type-ast-node joint-element joint-theme-default" transform="translate(240,600)"><rect id="v-530" rx="5" ry="5" stroke="none" fill="#fcbc2a" width="120" height="30"/><text id="v-531" font-size="10" xml:space="preserve" y="0.8em" fill="white" font-family="'Helvetica Neue Light','Helvetica Neue','Source Sans Pro',sans-serif" letter-spacing="1px" transform="matrix(1,0,0,1,57.5,10.5)"><tspan dy="0" class="v-line">+</tspan></text><path id="v-532" stroke="#666" d="M 0 0 0 10 M -5 10 5 10" visibility="hidden" pointer-events="none" transform="matrix(1,0,0,1,60,30)"/></g><g model-id="fc4326dc-a48e-4318-bd67-f5437d480c08" data-type="ast.Node" id="j_178" class="joint-cell joint-type-ast joint-type-ast-node joint-element joint-theme-default" transform="translate(320,650)"><rect id="v-535" rx="5" ry="5" stroke="none" fill="#ff5246" width="120" height="30"/><text id="v-536" font-size="10" xml:space="preserve" y="0.8em" fill="white" font-family="'Helvetica Neue Light','Helvetica Neue','Source Sans Pro',sans-serif" letter-spacing="1px" transform="matrix(1,0,0,1,57.5,10.5)"><tspan dy="0" class="v-line">a</tspan></text><path id="v-537" stroke="#666" d="M 0 0 0 10 M -5 10 5 10" visibility="hidden" pointer-events="none" transform="matrix(1,0,0,1,60,30)"/></g><g model-id="6fc8033b-73be-4377-ae3e-c1bdfe82d3f9" data-type="ast.Node" id="j_180" class="joint-cell joint-type-ast joint-type-ast-node joint-element joint-theme-default" transform="translate(320,700)"><rect id="v-540" rx="5" ry="5" stroke="none" fill="#ff5246" width="120" height="30"/><text id="v-541" font-size="10" xml:space="preserve" y="0.8em" fill="white" font-family="'Helvetica Neue Light','Helvetica Neue','Source Sans Pro',sans-serif" letter-spacing="1px" transform="matrix(1,0,0,1,57.2,10.5)"><tspan dy="0" class="v-line">b</tspan></text><path id="v-542" stroke="#666" d="M 0 0 0 10 M -5 10 5 10" visibility="hidden" pointer-events="none" transform="matrix(1,0,0,1,60,30)"/></g><g model-id="90d03a44-4d45-4d64-a929-891d48d75a00" data-type="ast.Link" id="j_155" class="joint-cell joint-type-ast joint-type-ast-link joint-link joint-theme-default"><path class="connection" id="v-545" fill="none" stroke="#666" pointer-events="none" marker-end="url(#v-2-857093843)" d="M 60 30 L 60 65 L 80 65"/></g><g model-id="19118cd5-ea23-44ac-84d0-2c929e53d5f0" data-type="ast.Link" id="j_157" class="joint-cell joint-type-ast joint-type-ast-link joint-link joint-theme-default"><path class="connection" id="v-546" fill="none" stroke="#666" pointer-events="none" marker-end="url(#v-2-857093843)" d="M 140 80 L 140 115 L 160 115"/></g><g model-id="1de992fe-8372-4eed-a482-b9e874003408" data-type="ast.Link" id="j_159" class="joint-cell joint-type-ast joint-type-ast-link joint-link joint-theme-default"><path class="connection" id="v-547" fill="none" stroke="#666" pointer-events="none" marker-end="url(#v-2-857093843)" d="M 220 130 L 220 165 L 240 165"/></g><g model-id="c7891740-ad5e-4dce-b4bc-f66247e979af" data-type="ast.Link" id="j_161" class="joint-cell joint-type-ast joint-type-ast-link joint-link joint-theme-default"><path class="connection" id="v-548" fill="none" stroke="#666" pointer-events="none" marker-end="url(#v-2-857093843)" d="M 220 130 L 220 215 L 240 215"/></g><g model-id="18859837-bbb4-4247-a5e1-12979d9e31d0" data-type="ast.Link" id="j_163" class="joint-cell joint-type-ast joint-type-ast-link joint-link joint-theme-default"><path class="connection" id="v-549" fill="none" stroke="#666" pointer-events="none" marker-end="url(#v-2-857093843)" d="M 60 30 L 60 265 L 80 265"/></g><g model-id="35f3fb32-7886-49b8-a444-e9c522f722e5" data-type="ast.Link" id="j_165" class="joint-cell joint-type-ast joint-type-ast-link joint-link joint-theme-default"><path class="connection" id="v-550" fill="none" stroke="#666" pointer-events="none" marker-end="url(#v-2-857093843)" d="M 140 280 L 140 315 L 160 315"/></g><g model-id="9a215639-bcac-49cf-87f8-59d669d9243f" data-type="ast.Link" id="j_167" class="joint-cell joint-type-ast joint-type-ast-link joint-link joint-theme-default"><path class="connection" id="v-551" fill="none" stroke="#666" pointer-events="none" marker-end="url(#v-2-857093843)" d="M 220 330 L 220 365 L 240 365"/></g><g model-id="f54f64b3-f358-464c-94fa-bc5c9568ab20" data-type="ast.Link" id="j_169" class="joint-cell joint-type-ast joint-type-ast-link joint-link joint-theme-default"><path class="connection" id="v-552" fill="none" stroke="#666" pointer-events="none" marker-end="url(#v-2-857093843)" d="M 220 330 L 220 415 L 240 415"/></g><g model-id="315f4470-864e-47f0-b076-0ae1e7169ccb" data-type="ast.Link" id="j_171" class="joint-cell joint-type-ast joint-type-ast-link joint-link joint-theme-default"><path class="connection" id="v-553" fill="none" stroke="#666" pointer-events="none" marker-end="url(#v-2-857093843)" d="M 60 30 L 60 465 L 80 465"/></g><g model-id="bbd72656-ed13-4f18-9431-bc5fc3ca50cd" data-type="ast.Link" id="j_173" class="joint-cell joint-type-ast joint-type-ast-link joint-link joint-theme-default"><path class="connection" id="v-554" fill="none" stroke="#666" pointer-events="none" marker-end="url(#v-2-857093843)" d="M 140 480 L 140 515 L 160 515"/></g><g model-id="31600f08-573b-42f3-b25d-5f62b41b309d" data-type="ast.Link" id="j_175" class="joint-cell joint-type-ast joint-type-ast-link joint-link joint-theme-default"><path class="connection" id="v-555" fill="none" stroke="#666" pointer-events="none" marker-end="url(#v-2-857093843)" d="M 220 530 L 220 565 L 240 565"/></g><g model-id="57e0611a-16d7-416f-a982-2aec08fc7681" data-type="ast.Link" id="j_177" class="joint-cell joint-type-ast joint-type-ast-link joint-link joint-theme-default"><path class="connection" id="v-556" fill="none" stroke="#666" pointer-events="none" marker-end="url(#v-2-857093843)" d="M 220 530 L 220 615 L 240 615"/></g><g model-id="dc45a054-4315-4469-a3e1-905fe16024ae" data-type="ast.Link" id="j_179" class="joint-cell joint-type-ast joint-type-ast-link joint-link joint-theme-default"><path class="connection" id="v-557" fill="none" stroke="#666" pointer-events="none" marker-end="url(#v-2-857093843)" d="M 300 630 L 300 665 L 320 665"/></g><g model-id="62db5215-2aa7-4837-8c5d-32963ab09e24" data-type="ast.Link" id="j_181" class="joint-cell joint-type-ast joint-type-ast-link joint-link joint-theme-default"><path class="connection" id="v-558" fill="none" stroke="#666" pointer-events="none" marker-end="url(#v-2-857093843)" d="M 300 630 L 300 715 L 320 715"/></g></g><g joint-selector="front" class="joint-front-layer"/><g joint-selector="tools" class="joint-tools-layer"/></g></svg>